<svg fill="#0e4fff" version="1.1" id="Layer_1" xmlns="http://www.w3.org/2000/svg" xmlns:xlink="http://www.w3.org/1999/xlink" viewBox="-49.93 -49.93 599.17 599.17" xml:space="preserve" width="256px" height="256px" stroke="#0e4fff" stroke-width="0.00499312"><g id="SVGRepo_bgCarrier" stroke-width="0" transform="translate(0,0), scale(1)"><path transform="translate(-49.93, -49.93), scale(18.7240625)" d="M16,27.039703614181942C18.577353025593748,27.61584227051621,21.60575520594084,28.20818197877963,23.71773593742914,26.622552211248113C25.827140425013543,25.038856632301524,26.06016712453203,21.964538859437884,26.26282599446556,19.334594304612924C26.429808583776516,17.167627955432422,25.573225158420662,15.168857456061268,24.755509128406405,13.155162633633754C24.000891473765922,11.296852892493613,23.19597175862158,9.486650808949205,21.71468450648158,8.134411564082026C20.089175337567646,6.650514846601127,18.19999393194638,5.09718343075524,16,5.1624231868320045C13.81636666629836,5.227177777280237,12.139539805773213,6.993058420932607,10.52637070492931,8.466195598903326C9.082429178863118,9.784795083452785,8.04009811197971,11.368649595910034,7.246706727967021,13.1558826090135C6.361703627955732,15.149484743989278,5.061120622641678,17.26120969086364,5.69566648914093,19.348080914230884C6.332480928339963,21.442412936470568,8.684693091681275,22.344802114578123,10.438888527699913,23.65421328819867C12.22162973377749,24.984932321540715,13.8289518752519,26.55438990782957,16,27.039703614181942" fill="#f2f5ff" strokewidth="0"></path></g><g id="SVGRepo_tracerCarrier" stroke-linecap="round" stroke-linejoin="round" stroke="#CCCCCC" stroke-width="8.987616"></g><g id="SVGRepo_iconCarrier"> <g> <g> <g> <path d="M497.656,323.312v-144H436.16c-21.736-56.24-68.224-100.184-125.72-118.528L249.656,0L188.72,60.936 c-16.88,5.4-32.808,13.024-47.56,22.568l-40.192-40.192H41.656v59.312L81.832,142.8c-7.504,11.616-13.832,24.144-18.88,37.4 c-34.632,5.2-61.296,35.056-61.296,71.112c0,36.016,26.6,65.848,61.168,71.096c23.696,62.256,76.8,108.568,141.32,123.584 l-32.808,53.32h156.64L295.168,446c22.536-5.224,43.656-14.248,63.04-26.824l27.856,27.856c7.92,7.92,18.456,12.28,29.656,12.28 c23.12,0,41.936-18.816,41.936-41.936c0-11.2-4.36-21.736-12.28-29.656l-27.888-27.888c7.328-11.344,13.536-23.576,18.528-36.52 H497.656z M481.656,195.312v112h-112v-112H481.656z M302.344,75.312L257.656,120V78.624l24-24L302.344,75.312z M249.656,22.624 l20.688,20.688L249.656,64l-20.688-20.688L249.656,22.624z M217.656,54.624l24,24V120l-44.688-44.688L217.656,54.624z M180.104,81.072l69.552,69.552l69.592-69.592c44.648,18.304,80.76,53.76,99.728,98.28h-65.32V296L152.736,95.08 C161.44,89.672,170.568,84.96,180.104,81.072z M105.656,70.624l248,248v4.688h4.688l4,4L349.656,340L92.968,83.312 L105.656,70.624z M57.656,59.312h36.688L57.656,96V59.312z M68.968,107.312l12.688-12.688l256.688,256.688L325.656,364 L68.968,107.312z M73.656,195.312c15.208,0,29.008,6.12,39.112,16H34.544C44.648,201.432,58.448,195.312,73.656,195.312z M97.656,227.312v48h-48v-48H97.656z M33.656,290.432c-9.88-10.112-16-23.904-16-39.12c0-15.216,6.12-29.008,16-39.112V290.432z M34.544,291.312h78.232c-10.112,9.88-23.904,16-39.12,16S44.648,301.192,34.544,291.312z M299.336,483.312h-99.36l49.68-80.736 L299.336,483.312z M286.248,431.512l-36.592-59.464l-36.592,59.464c-59.52-12.024-109.256-52.744-132.848-108.536 c36.632-3.328,65.44-34.176,65.44-71.664c0-37.448-28.744-68.28-65.328-71.664c3.728-8.848,8.112-17.288,13.064-25.288 l253.272,253.272C328.104,419.184,307.832,427.16,286.248,431.512z M113.656,290.424V212.2c9.88,10.104,16,23.904,16,39.112 C129.656,266.52,123.536,280.32,113.656,290.424z M349.656,388l-12.688-12.688l36.688-36.688l12.688,12.688L349.656,388z M434.064,399.032c4.896,4.896,7.592,11.416,7.592,18.344c0,14.304-11.632,25.936-25.936,25.936 c-6.928,0-13.448-2.696-18.344-7.592l-36.408-36.408l36.688-36.688L434.064,399.032z M405.92,348.264l-24.952-24.952h37.872 C415.144,332.04,410.808,340.368,405.92,348.264z"></path> <path d="M425.656,204.216l-54.44,87.096h108.872L425.656,204.216z M425.656,234.408l25.56,40.904h-51.128L425.656,234.408z"></path> <rect x="241.656" y="451.312" width="16" height="16"></rect> </g> </g> </g> </g></svg>